Muriel's Wedding (1995)
 
http://www.imdb.com/title/tt0110598/

This is my own rip.  I couldn't find accurate names for all the chapter stops.

There is a barely visible logo for about 20 seconds total time.

General
Unique ID                        : 226625941981404546254382437721744496829 (0xAA7E919BCEE91F79A35F9D582BC258BD)
Format                           : Matroska
Format version                   : Version 2
File size                        : 1.98 GiB
Duration                         : 1h 45mn
Overall bit rate mode            : Variable
Overall bit rate                 : 2 685 Kbps
Encoded date                     : UTC 2012-10-23 16:07:02
Writing application              : mkvmerge v5.8.0 ('No Sleep / Pillow') built on Sep  2 2012 15:37:04
Writing library                  : libebml v1.2.3 + libmatroska v1.3.0

Video
ID                               : 1
Format                           : AVC
Format/Info                      : Advanced Video Codec
Format profile                   : High@L4.1
Format settings, CABAC           : Yes
Format settings, ReFrames        : 7 frames
Codec ID                         : V_MPEG4/ISO/AVC
Duration                         : 1h 45mn
Bit rate mode                    : Variable
Bit rate                         : 2 247 Kbps
Maximum bit rate                 : 10.2 Mbps
Width                            : 1 280 pixels
Height                           : 720 pixels
Display aspect ratio             : 16:9
Frame rate                       : 23.976 fps
Color space                      : YUV
Chroma subsampling               : 4:2:0
Bit depth                        : 8 bits
Scan type                        : Progressive
Bits/(Pixel*Frame)               : 0.102
Stream size                      : 1.66 GiB (84%)
Writing library                  : x264 core 125 r2208 d9d2288
Encoding settings                : cabac=1 / ref=8 / deblock=1:-1:-1 / analyse=0x3:0x133 / me=umh / subme=9 / psy=1 / psy_rd=1.00:0.15 / mixed_ref=1 / me_range=16 / chroma_me=1 / trellis=2 / 8x8dct=1 / cqm=0 / deadzone=21,11 / fast_pskip=1 / chroma_qp_offset=-3 / threads=12 / lookahead_threads=2 / sliced_threads=0 / nr=0 / decimate=1 / interlaced=0 / bluray_compat=0 / constrained_intra=0 / bframes=8 / b_pyramid=1 / b_adapt=2 / b_bias=0 / direct=3 / weightb=1 / open_gop=0 / weightp=2 / keyint=120 / keyint_min=12 / scenecut=40 / intra_refresh=0 / rc_lookahead=60 / rc=crf / mbtree=1 / crf=20.0 / qcomp=0.75 / qpmin=0 / qpmax=69 / qpstep=8 / vbv_maxrate=50000 / vbv_bufsize=32000 / crf_max=0.0 / nal_hrd=vbr / ip_ratio=1.40 / aq=1:1.00 / zones=146222,151682,crf=25
Language                         : English
Default                          : Yes
Forced                           : No
Color primaries                  : BT.709-5, BT.1361, IEC 61966-2-4, SMPTE RP177
Transfer characteristics         : BT.709-5, BT.1361
Matrix coefficients              : BT.709-5, BT.1361, IEC 61966-2-4 709, SMPTE RP177

Audio
ID                               : 2
Format                           : AC-3
Format/Info                      : Audio Coding 3
Mode extension                   : CM (complete main)
Codec ID                         : A_AC3
Duration                         : 1h 45mn
Bit rate mode                    : Constant
Bit rate                         : 384 Kbps
Channel(s)                       : 6 channels
Channel positions                : Front: L C R, Side: L R, LFE
Sampling rate                    : 48.0 KHz
Bit depth                        : 16 bits
Compression mode                 : Lossy
Stream size                      : 290 MiB (14%)
Language                         : English
Default                          : Yes
Forced                           : No

Menu
00:00:00.000                     : Opening Credits
00:00:59.685                     : The Bouquet
00:05:07.265                     : Chapter 3
00:06:33.768                     : No Receipt
00:12:50.353                     : Checked Out of the Group
00:19:55.152                     : Chapter 6
00:21:28.287                     : Rhonda
00:25:15.764                     : Hibiscus Island Star Search
00:32:18.812                     : Chapter 9
00:34:43.081                     : Brice
00:38:07.202                     : Chapter 11
00:39:29.450                     : Back at the Flat
00:43:39.806                     : A Call Home
00:46:59.358                     : Bridal Shop
00:50:09.195                     : A Promise
00:52:09.126                     : Chapter 16
00:56:02.317                     : Dad
00:59:20.746                     : More Bad News
01:00:20.575                     : Bride for Hire
01:05:40.979                     : Mariel's Wedding
01:12:09.492                     : Chapter 21
01:14:50.444                     : A Disappointed Friend
01:16:49.146                     : Wedding Night
01:18:53.979                     : Chapter 24
01:20:50.262                     : A Cruel Departure
01:23:58.909                     : Home for the Funeral
01:29:59.102                     : Compassion
01:32:14.279                     : No More Lying
01:34:40.155                     : You Reap What You Sow
01:37:40.646                     : Return of a Friend
01:41:38.676                     : End Credits
